# xmcd
#
# Track frame offsets:
#	150
#	16371
#	22773
#	33474
#	53884
#	67855
#	75663
#	90216
#	100915
#	113189
#	138311
#	156677
#	163895
#	170283
#	176484
#	197766
#	214578
#	220035
#	224895
#	233283
#	246218
#	250767
#	267888
#	275841
#	285033
#	304698
#	317118
#	322710
#
# Disc length: 4439 seconds
#
# Revision: 1
# Processed by: cddbd v1.5.2PL0 Copyright (c) Steve Scherf et al.
# Submitted via: EasyCDDAExtractor 9.0.0.1
#
DISCID=7c11551c
DTITLE=Chipukizi wa Yesu Choir Liuli and Hongi - Ruvuma Rhythms 1
DYEAR=1999
DGENRE=Chorus
TTITLE0=Dayosis Ruvuma
TTITLE1=Sifuni
TTITLE2=Tubarikiwe
TTITLE3=Johanna
TTITLE4=Jesus my Lord
TTITLE5=Sijaona
TTITLE6=Nifanya nini mimi
TTITLE7=Drums
TTITLE8=Jemani Shetani
TTITLE9=Siku za Mwisho
TTITLE10=Bwana Nalia
TTITLE11=Siku za Mwisho
TTITLE12=Adamu Wangu
TTITLE13=Nitamwimba Yesu
TTITLE14=Nikufananaishe
TTITLE15=Mwokozi Uliyekufa
TTITLE16=Tuyasome Maandiko
TTITLE17=Yusuf na Maria
TTITLE18=Baba Ya Jinsi Hii
TTITLE19=There's a Cure
TTITLE20=Shida Dunia
TTITLE21=Anakija Bwana
TTITLE22=Anakija Bwana
TTITLE23=Sisi ni Chipukizi
TTITLE24=Wengini Wananfanisha
TTITLE25=Hatari Kubwa
TTITLE26=Jambo Gani
TTITLE27=O wakwe up
EXTD=
EXTT0=
EXTT1=
EXTT2=
EXTT3=
EXTT4=
EXTT5=
EXTT6=
EXTT7=
EXTT8=
EXTT9=
EXTT10=
EXTT11=
EXTT12=
EXTT13=
EXTT14=
EXTT15=
EXTT16=
EXTT17=
EXTT18=
EXTT19=
EXTT20=
EXTT21=
EXTT22=
EXTT23=
EXTT24=
EXTT25=
EXTT26=
EXTT27=
PLAYORDER=
